<svg xmlns="http://www.w3.org/2000/svg" version="1.1" xmlns:xlink="http://www.w3.org/1999/xlink" xmlns:svgjs="http://svgjs.dev/svgjs" width="1000" height="90" viewBox="0 0 1000 90"><g transform="matrix(1,0,0,1,-0.6060518152931422,0.4995371179304655)"><svg viewBox="0 0 396 36" data-background-color="#ffffff" preserveAspectRatio="xMidYMid meet" height="90" width="1000" xmlns="http://www.w3.org/2000/svg" xmlns:xlink="http://www.w3.org/1999/xlink"><g id="tight-bounds" transform="matrix(1,0,0,1,0.23999653421213907,-0.19981482870761624)"><svg viewBox="0 0 395.52 36.399629675879794" height="36.399629675879794" width="395.52"><g><svg viewBox="0 0 454.40130660721184 41.818465020070846" height="36.399629675879794" width="395.52"><g><rect width="2.7288222374572286" height="36.31125761511216" x="49.008970659133574" y="2.7536037024793423" fill="#0718c4" opacity="1" stroke-width="0" stroke="transparent" fill-opacity="1" class="rect-o-0" data-fill-palette-color="primary" rx="1%" id="o-0" data-palette-color="#0718c4"></rect></g><g transform="matrix(1,0,0,1,58.88130660721182,5.779541837072021)"><svg viewBox="0 0 395.52 30.259381345926805" height="30.259381345926805" width="395.52"><g id="textblocktransform"><svg viewBox="0 0 395.52 30.259381345926805" height="30.259381345926805" width="395.52" id="textblock"><g><svg viewBox="0 0 395.52 30.259381345926805" height="30.259381345926805" width="395.52"><g transform="matrix(1,0,0,1,0,0)"><svg width="395.52" viewBox="5.5 -32.04999923706055 423.4599914550781 32.39999771118164" height="30.259381345926805" data-palette-color="#0718c4"><path d="M28-31.9L27.95-8.8 27.9 0 26.95 0 6.75-29.75 6.55-29.75 6.5-9.95 6.5 0 5.5 0 5.5-9.5 5.55-31.85 6.5-31.85 26.7-2.1 26.9-2.1 27-31.8 28-31.9ZM48.15-31.85L59.8 0 58.65 0 58-2.15 54.85-10.65 39.75-10.65 36.35-2.15 35.65 0 34.45 0 47.15-31.85 48.15-31.85ZM54.5-11.65L47.7-30.15 47.5-30.15 40.15-11.65 54.5-11.65ZM93.05-31.85L96.45 0 95.4 0 94.4-9.75 92.2-29.45 91.95-29.45 81.25-4.05 80-4.05 69.5-29.45 69.25-29.45 67.1-9.75 66.05 0 65 0 68.5-31.85 69.65-31.85 71.65-26.9 80.5-5.5 80.7-5.5 90.05-27.45 91.9-31.85 93.05-31.85ZM106.74-31.85L106.74 0 105.74 0 105.74-31.85 106.74-31.85ZM127.29-16.7Q130.74-16.2 132.67-14.23 134.59-12.25 134.59-8.8L134.59-8.8Q134.59-4.55 131.64-2.2 128.69 0.15 123.19 0.15L123.19 0.15Q120.29 0.15 117.74 0L117.74 0 117.74-31.85 123.89-31.95Q127.84-31.95 129.97-30.03 132.09-28.1 132.09-24.55L132.09-24.55Q132.09-21.55 130.84-19.58 129.59-17.6 127.29-16.7L127.29-16.7ZM124.24-30.9L118.74-30.9 118.74-17.15 125.24-17Q128.04-17.55 129.54-19.5 131.04-21.45 131.04-24.55L131.04-24.55Q131.04-27.45 129.19-29.18 127.34-30.9 124.24-30.9L124.24-30.9ZM122.99-0.85Q128.09-0.85 130.84-2.95 133.59-5.05 133.59-8.8L133.59-8.8Q133.59-12 131.54-13.85 129.49-15.7 125.69-16L125.69-16 118.74-16 118.74-1Q120.69-0.85 122.99-0.85L122.99-0.85ZM177.69-31.85L181.09 0 180.04 0 179.04-9.75 176.84-29.45 176.59-29.45 165.89-4.05 164.64-4.05 154.14-29.45 153.89-29.45 151.74-9.75 150.69 0 149.64 0 153.14-31.85 154.28-31.85 156.28-26.9 165.14-5.5 165.34-5.5 174.69-27.45 176.54-31.85 177.69-31.85ZM199.53-31.85L211.18 0 210.03 0 209.38-2.15 206.23-10.65 191.13-10.65 187.73-2.15 187.03 0 185.83 0 198.53-31.85 199.53-31.85ZM205.88-11.65L199.08-30.15 198.88-30.15 191.53-11.65 205.88-11.65ZM226.83-13.35Q230.73-6.95 235.88-0.25L235.88-0.25 235.88-0.05Q235.63 0.2 235.28 0.35L235.28 0.35 234.98 0.25Q229.63-6.75 225.78-13.15L225.78-13.15 219.08-13.15 219.08 0 218.08 0 218.08-31.85 225.13-31.95Q229.48-31.95 231.83-29.7 234.18-27.45 234.18-23.2L234.18-23.2Q234.18-19.5 232.28-16.98 230.38-14.45 226.83-13.35L226.83-13.35ZM219.08-30.9L219.08-14.15 226.18-14.15Q229.53-15 231.36-17.35 233.18-19.7 233.18-23.2L233.18-23.2Q233.18-26.9 231.18-28.9 229.18-30.9 225.48-30.9L225.48-30.9 219.08-30.9ZM244.98-31.85L244.98 0 243.98 0 243.98-31.85 244.98-31.85ZM262.58-31.85L247.78-17Q255.08-8.2 263.38-0.25L263.38-0.25 263.38-0.05Q263.23 0.1 262.68 0.35L262.68 0.35 262.48 0.3Q253.33-8.6 246.43-16.9L246.43-16.9 246.43-17.05 258.88-29.5 261.03-31.85 262.58-31.85ZM284.93-1L285.08-0.8 284.88 0 269.33 0 269.33-31.85 284.73-31.85 284.88-31.65 284.68-30.85 270.33-30.85 270.33-17 282.23-17 282.38-16.8 282.18-16 270.33-16 270.33-1 284.93-1ZM308.72-31.85L308.87-31.65 308.67-30.85 298.92-30.85 298.92 0 297.92 0 297.92-30.85 288.07-30.85 287.92-31.05 288.12-31.85 308.72-31.85ZM322.82-31.95Q327.17-31.95 329.52-29.63 331.87-27.3 331.87-23L331.87-23Q331.87-17.9 329.12-15.18 326.37-12.45 321.22-12.45L321.22-12.45 316.77-12.45 316.77 0 315.77 0 315.77-31.85 322.82-31.95ZM322.72-13.45Q326.62-13.8 328.75-16.32 330.87-18.85 330.87-23L330.87-23Q330.87-26.7 328.87-28.75 326.87-30.8 323.17-30.95L323.17-30.95 316.77-30.9 316.77-13.45 322.72-13.45ZM353.97-1L354.12-0.8 353.92 0 339.92 0 339.92-31.85 340.92-31.85 340.92-1 353.97-1ZM369.01-31.85L380.67 0 379.51 0 378.87-2.15 375.72-10.65 360.62-10.65 357.22-2.15 356.51 0 355.31 0 368.01-31.85 369.01-31.85ZM375.37-11.65L368.56-30.15 368.37-30.15 361.01-11.65 375.37-11.65ZM397.21-32.05Q399.56-32.05 401.86-31.28 404.16-30.5 406.01-29.1L406.01-29.1 405.66-28.25 405.31-28.25Q403.61-29.6 401.54-30.33 399.46-31.05 397.21-31.05L397.21-31.05Q391.26-31.05 388.11-27.1 384.96-23.15 384.96-15.8L384.96-15.8Q384.96-8.55 387.96-4.65 390.96-0.75 396.61-0.75L396.61-0.75Q399.01-0.75 401.39-1.63 403.76-2.5 405.76-4.1L405.76-4.1 406.11-4 406.01-3.1Q403.91-1.5 401.46-0.63 399.01 0.25 396.66 0.25L396.66 0.25Q390.51 0.25 387.24-3.93 383.96-8.1 383.96-15.85L383.96-15.85Q383.96-23.65 387.39-27.85 390.81-32.05 397.21-32.05L397.21-32.05ZM428.81-1L428.96-0.8 428.76 0 413.21 0 413.21-31.85 428.61-31.85 428.76-31.65 428.56-30.85 414.21-30.85 414.21-17 426.11-17 426.26-16.8 426.06-16 414.21-16 414.21-1 428.81-1Z" opacity="1" transform="matrix(1,0,0,1,0,0)" fill="#0718c4" class="wordmark-text-0" data-fill-palette-color="primary" id="text-0"></path></svg></g></svg></g></svg></g></svg></g><g><svg viewBox="0 0 41.86545694851256 41.818465020070846" height="41.818465020070846" width="41.86545694851256"><g><svg xmlns="http://www.w3.org/2000/svg" xmlns:xlink="http://www.w3.org/1999/xlink" version="1.1" x="0" y="0" viewBox="0.5235953330993652 0.6000000238418579 47.05281448364258 47" enable-background="new 0 0 48 48" xml:space="preserve" height="41.818465020070846" width="41.86545694851256" class="icon-icon-0" data-fill-palette-color="accent" id="icon-0"><g fill="#24a8df" data-fill-palette-color="accent"><g fill="#24a8df" data-fill-palette-color="accent"><path fill="#24a8df" d="M43.2 14.7H4.8c-1.3 0-2.6-0.6-3.4-1.7-0.8-1.1-1.1-2.5-0.7-3.8l2.1-7.2c0.2-0.8 1-1.4 1.9-1.4h38.7c0.9 0 1.6 0.6 1.9 1.4l2.1 7.2c0.4 1.3 0.1 2.7-0.7 3.8C45.8 14.1 44.6 14.7 43.2 14.7zM6.1 4.4l-1.7 5.8c-0.1 0.2 0 0.3 0.1 0.4 0.1 0.1 0.2 0.1 0.3 0.1h38.5c0.1 0 0.2 0 0.3-0.1 0-0.1 0.1-0.2 0.1-0.4l-1.7-5.8H6.1z" data-fill-palette-color="accent"></path></g><g fill="#24a8df" data-fill-palette-color="accent"><path fill="#24a8df" d="M40.8 47.5H29.7c-1.1 0-2-0.9-2-2V35c0-2.1-1.7-3.9-3.7-3.9s-3.7 1.7-3.7 3.9v10.6c0 1.1-0.9 2-2 2H7.2c-1.1 0-2-0.9-2-2V12.7c0-1.1 0.9-2 2-2h33.6c1.1 0 2 0.9 2 2v32.8C42.8 46.6 41.9 47.5 40.8 47.5zM31.6 43.6h7.2V14.7H9.1v28.9h7.2V35c0-4.3 3.4-7.8 7.6-7.8s7.6 3.5 7.6 7.8V43.6z" data-fill-palette-color="accent"></path></g></g></svg></g></svg></g></svg></g><defs></defs></svg><rect width="395.52" height="36.399629675879794" fill="none" stroke="none" visibility="hidden"></rect></g></svg></g></svg>